<?xml version="1.0" encoding="utf-8"?>
<!-- Generator: Adobe Illustrator 27.1.1, SVG Export Plug-In . SVG Version: 6.00 Build 0)  -->
<svg version="1.1" id="レイヤー_1" xmlns="http://www.w3.org/2000/svg" xmlns:xlink="http://www.w3.org/1999/xlink" x="0px"
	 y="0px" viewBox="0 0 50.1 34.1" style="enable-background:new 0 0 50.1 34.1;" xml:space="preserve">
<style type="text/css">
	.st0{fill:none;}
	.st1{fill:#172A88;}
</style>
<g id="グループ_2657" transform="translate(-614.932 -27)">
	<g id="パス_12" transform="translate(88.744 -300.565)">
		<path class="st0" d="M571.5,348.5c-2.1,6.5-9.2,10.1-15.7,7.9c-6.5-2.1-10.1-9.2-7.9-15.7c2.1-6.5,9.2-10.1,15.7-7.9
			c3.8,1.2,6.7,4.2,7.9,7.9h4.8c-2.1-9.2-11.3-14.9-20.5-12.7c-9.2,2.1-14.9,11.3-12.7,20.5s11.3,14.9,20.5,12.7
			c6.3-1.5,11.2-6.4,12.7-12.7H571.5z"/>
		<path class="st1" d="M559.7,361.2c1.9,0,3.8-0.3,5.6-1c1.7-0.6,3.3-1.5,4.8-2.7c2.7-2.2,4.7-5.2,5.6-8.5h-3.8
			c-0.9,2.4-2.4,4.5-4.5,6c-2.2,1.6-4.9,2.5-7.7,2.5c-3.5,0-6.7-1.3-9.2-3.8c-2.4-2.4-3.8-5.7-3.8-9.2c0-3.5,1.3-6.7,3.8-9.2
			c2.4-2.4,5.7-3.8,9.2-3.8c2.8,0,5.4,0.9,7.7,2.5c2.1,1.5,3.6,3.6,4.5,6h3.8c-0.9-3.3-2.9-6.3-5.6-8.5c-1.4-1.2-3-2.1-4.8-2.7
			c-1.8-0.6-3.7-1-5.6-1c-4.4,0-8.6,1.7-11.7,4.8c-3.1,3.1-4.8,7.3-4.8,11.7c0,4.4,1.7,8.6,4.8,11.7S555.3,361.2,559.7,361.2
			 M559.7,361.7c-9.4,0-17.1-7.6-17.1-17.1c0-9.4,7.6-17.1,17.1-17.1c8.1,0,14.8,5.6,16.6,13.2h-4.8c-1.6-5-6.3-8.6-11.8-8.6
			c-6.9,0-12.4,5.6-12.4,12.4c0,6.9,5.6,12.4,12.4,12.4c5.5,0,10.2-3.6,11.8-8.6h4.8C574.6,356,567.8,361.7,559.7,361.7z"/>
	</g>
	<path id="合体_1" class="st1" d="M614.9,44.1c0-9.4,7.6-17,17.1-17c7.9,0,14.8,5.5,16.6,13.2h-4.8c-2.1-6.5-9.2-10.1-15.7-7.9
		c-6.5,2.1-10.1,9.2-7.9,15.7s9.2,10.1,15.7,7.9c0.1,0,0.2-0.1,0.2-0.1c1.2,1.3,2.6,2.3,4.1,3.2c-8.2,4.6-18.6,1.6-23.2-6.7
		C615.7,49.8,614.9,46.9,614.9,44.1z M640.2,53.4c1.7-1.5,2.9-3.4,3.6-5.5h-7.2l0,0c-0.5-1.5-0.7-3.2-0.6-4.8h13
		c0,0.8,0,1.6-0.1,2.4c0,0.1,0,0.2,0,0.2c0,0,0,0.1,0,0.1c0,0,0,0.1,0,0.1c-0.1,0.6-0.2,1.2-0.3,1.9c0,0,0,0.1,0,0.1l0,0
		c-0.1,0.3-0.2,0.7-0.3,1c-0.8,2.6-2.1,4.9-4,6.9C642.8,55.3,641.4,54.4,640.2,53.4L640.2,53.4z"/>
</g>
</svg>
