<svg id="グループ_2692" data-name="グループ 2692" xmlns="http://www.w3.org/2000/svg" width="21.614" height="18.828" viewBox="0 0 21.614 18.828">
  <g id="線_26" data-name="線 26" transform="translate(0.414 8.414)" fill="none" stroke-linecap="round">
    <path d="M20.2,1H1" stroke="none"/>
    <path d="M 1.000083923339844 2 L 20.19970512390137 2 C 20.33777618408203 2 20.46931266784668 1.972017526626587 20.58895111083984 1.921414375305176 C 20.70858955383301 1.870811223983765 20.81633186340332 1.797587513923645 20.90681266784668 1.707104921340942 C 20.99729537963867 1.616622447967529 21.07051849365234 1.508881211280823 21.12112045288086 1.389243125915527 C 21.17172241210938 1.269604921340942 21.19970512390137 1.138069987297058 21.19970512390137 1 C 21.19970512390137 0.8619300127029419 21.17172241210938 0.7303950190544128 21.12112045288086 0.6107568740844727 C 21.07051849365234 0.4911187887191772 20.99729537963867 0.3833775520324707 20.90681266784668 0.2928950190544128 C 20.81633186340332 0.202412486076355 20.70858955383301 0.1291887760162354 20.58895111083984 0.07858562469482422 C 20.46931266784668 0.02798247337341309 20.33777618408203 0 20.19970512390137 0 L 1.000083923339844 0 C 0.8620109558105469 0 0.7304744720458984 0.02798247337341309 0.6108360290527344 0.07858562469482422 C 0.4911975860595703 0.1291887760162354 0.3834571838378906 0.202412486076355 0.2929744720458984 0.2928950190544128 C 0.2024917602539062 0.3833775520324707 0.1292686462402344 0.4911187887191772 0.07866668701171875 0.6107568740844727 C 0.02806472778320312 0.7303950190544128 8.392333984375e-05 0.8619300127029419 8.392333984375e-05 1 C 8.392333984375e-05 1.138069987297058 0.02806472778320312 1.269604921340942 0.07866668701171875 1.389243125915527 C 0.1292686462402344 1.508881211280823 0.2024917602539062 1.616622447967529 0.2929744720458984 1.707104921340942 C 0.3834571838378906 1.797587513923645 0.4911975860595703 1.870811223983765 0.6108360290527344 1.921414375305176 C 0.7304744720458984 1.972017526626587 0.8620109558105469 2 1.000083923339844 2 Z" stroke="none" fill="#000"/>
  </g>
  <g id="線_27" data-name="線 27" fill="none" stroke-linecap="round">
    <path d="M9.414,1.414l-8,8" stroke="none"/>
    <path d="M 1.414219379425049 10.41390419006348 C 1.47819995880127 10.41390419006348 1.542180061340332 10.40780258178711 1.605212211608887 10.39559936523438 C 1.668244361877441 10.38339519500732 1.730329036712646 10.36508941650391 1.790517807006836 10.34068202972412 C 1.850706577301025 10.31627464294434 1.908999443054199 10.28576564788818 1.964449405670166 10.24915504455566 C 2.019899368286133 10.21254348754883 2.072505950927734 10.16983032226562 2.121320724487305 10.12101459503174 L 10.12117099761963 2.121164321899414 C 10.21880054473877 2.023534297943115 10.29202270507812 1.910739302635193 10.34083843231201 1.790361642837524 C 10.38965320587158 1.669983983039856 10.41406059265137 1.542023658752441 10.41406059265137 1.414062976837158 C 10.41406059265137 1.286102414131165 10.38965320587158 1.158141493797302 10.34083843231201 1.037762641906738 C 10.29202270507812 0.9173836708068848 10.21880054473877 0.8045867681503296 10.12117099761963 0.706954300403595 C 10.07235431671143 0.6581393480300903 10.01974678039551 0.6154261827468872 9.964296340942383 0.5788149237632751 C 9.908845901489258 0.5422036647796631 9.850551605224609 0.5116943120956421 9.790362358093262 0.4872868061065674 C 9.730173110961914 0.4628793001174927 9.668087959289551 0.4445736408233643 9.60505485534668 0.4323698878288269 C 9.542022705078125 0.4201661348342896 9.478042602539062 0.4140642881393433 9.414061546325684 0.4140642881393433 C 9.350081443786621 0.4140642881393433 9.286101341247559 0.4201661348342896 9.223069190979004 0.4323698878288269 C 9.160037040710449 0.4445736408233643 9.097951889038086 0.4628793001174927 9.037763595581055 0.4872868061065674 C 8.977574348449707 0.5116943120956421 8.919281005859375 0.5422036647796631 8.863831520080566 0.5788149237632751 C 8.808382034301758 0.6154261827468872 8.755775451660156 0.6581393480300903 8.706960678100586 0.706954300403595 L 0.7071104049682617 8.706804275512695 C 0.6094799041748047 8.804433822631836 0.5362577438354492 8.917229652404785 0.4874429702758789 9.037607192993164 C 0.4386281967163086 9.157984733581543 0.4142208099365234 9.285944938659668 0.4142208099365234 9.413905143737793 C 0.4142208099365234 9.541866302490234 0.4386281967163086 9.669826507568359 0.4874429702758789 9.790205955505371 C 0.5362577438354492 9.910585403442383 0.6094799041748047 10.02338218688965 0.7071104049682617 10.12101459503174 C 0.7559261322021484 10.16983032226562 0.8085336685180664 10.21254348754883 0.8639850616455078 10.24915504455566 C 0.9194355010986328 10.28576564788818 0.9777297973632812 10.31627464294434 1.037919044494629 10.34068202972412 C 1.098108291625977 10.36508941650391 1.16019344329834 10.38339519500732 1.223226547241211 10.39559936523438 C 1.286258697509766 10.40780258178711 1.350238800048828 10.41390419006348 1.414219379425049 10.41390419006348 Z" stroke="none" fill="#000"/>
  </g>
  <g id="線_28" data-name="線 28" transform="translate(0 8)" fill="none" stroke-linecap="round">
    <path d="M9.414,9.414l-8-8" stroke="none"/>
    <path d="M 9.414061546325684 10.41390419006348 C 9.478042602539062 10.41390419006348 9.542022705078125 10.40780258178711 9.60505485534668 10.39559936523438 C 9.668087959289551 10.38339519500732 9.730173110961914 10.36508941650391 9.790362358093262 10.34068202972412 C 9.850551605224609 10.31627464294434 9.908845901489258 10.28576564788818 9.964296340942383 10.24915504455566 C 10.01974678039551 10.21254348754883 10.07235431671143 10.16983032226562 10.12117099761963 10.12101459503174 C 10.21880054473877 10.02338218688965 10.29202270507812 9.910585403442383 10.34083843231201 9.790205955505371 C 10.38965320587158 9.669826507568359 10.41406059265137 9.541866302490234 10.41406059265137 9.413905143737793 C 10.41406059265137 9.285944938659668 10.38965320587158 9.157984733581543 10.34083843231201 9.037607192993164 C 10.29202270507812 8.917229652404785 10.21880054473877 8.804433822631836 10.12117099761963 8.706804275512695 L 2.121320724487305 0.706954300403595 C 2.072505950927734 0.6581393480300903 2.019899368286133 0.6154261827468872 1.964449405670166 0.5788149237632751 C 1.908999443054199 0.5422036647796631 1.850706577301025 0.5116943120956421 1.790517807006836 0.4872868061065674 C 1.730329036712646 0.4628793001174927 1.668244361877441 0.4445736408233643 1.605212211608887 0.4323698878288269 C 1.542180061340332 0.4201661348342896 1.47819995880127 0.4140642881393433 1.414219379425049 0.4140642881393433 C 1.350238800048828 0.4140642881393433 1.286258697509766 0.4201661348342896 1.223226547241211 0.4323698878288269 C 1.16019344329834 0.4445736408233643 1.098108291625977 0.4628793001174927 1.037919044494629 0.4872868061065674 C 0.9777297973632812 0.5116943120956421 0.9194355010986328 0.5422036647796631 0.8639850616455078 0.5788149237632751 C 0.8085336685180664 0.6154261827468872 0.7559261322021484 0.6581393480300903 0.7071104049682617 0.706954300403595 C 0.6094799041748047 0.8045867681503296 0.5362577438354492 0.9173836708068848 0.4874429702758789 1.037762641906738 C 0.4386281967163086 1.158141493797302 0.4142208099365234 1.286102414131165 0.4142208099365234 1.414062976837158 C 0.4142208099365234 1.542023658752441 0.4386281967163086 1.669983983039856 0.4874429702758789 1.790361642837524 C 0.5362577438354492 1.910739302635193 0.6094799041748047 2.023534297943115 0.7071104049682617 2.121164321899414 L 8.706960678100586 10.12101459503174 C 8.755775451660156 10.16983032226562 8.808382034301758 10.21254348754883 8.863831520080566 10.24915504455566 C 8.919281005859375 10.28576564788818 8.977574348449707 10.31627464294434 9.037763595581055 10.34068202972412 C 9.097951889038086 10.36508941650391 9.160037040710449 10.38339519500732 9.223069190979004 10.39559936523438 C 9.286101341247559 10.40780258178711 9.350081443786621 10.41390419006348 9.414061546325684 10.41390419006348 Z" stroke="none" fill="#000"/>
  </g>
</svg>
